<?xml version="1.0" standalone="no"?><!DOCTYPE svg PUBLIC "-//W3C//DTD SVG 1.1//EN" "http://www.w3.org/Graphics/SVG/1.1/DTD/svg11.dtd"><svg xmlns:xlink="http://www.w3.org/1999/xlink" t="1615214752366" class="icon" viewBox="0 0 1024 1024" version="1.1" xmlns="http://www.w3.org/2000/svg" p-id="1336" width="200" height="200"><defs><style type="text/css"></style></defs><path d="M900.9 800.6H158.7v-39.1h700.6v-503H158.7v-35.1h742.2c6.1 0 11.1 4.1 11.1 9.1v559c0 5-5 9.1-11.1 9.1z m-42-38.9V258.8H158.3v502.9h700.6zM112 784.4v-1.8c0-9 4.2-16.1 12.5-18 16.6-5.4 29-17.9 29-34s-12.5-28.7-29.2-34.1c-7.3-3.3-12.3-9.9-12.3-17.5v-41.5c0-9 4.2-16.1 12.5-17.9 16.6-5.4 29-17.9 29-34s-12.5-28.7-29.2-34.1c-7.3-3.3-12.3-9.9-12.3-17.5v-41.6c0-9 4.2-16.1 12.5-18 16.6-5.4 29-17.9 29-34s-12.5-28.6-29.2-34.1c-7.3-3.3-12.3-9.9-12.3-17.5v-41.5c0-9 4.2-16.1 12.5-17.9 16.6-5.4 29-17.9 29-34s-12.5-28.7-29.2-34.1c-7.3-3.3-12.3-9.9-12.3-17.5v-2.1c0-10.7 8.3-17.9 20.8-17.9h67.6l-0.5 35.1h-41.3v502.9h41.8v39.1H123c-6.8-3.1-11-8.9-11-16.5z m61.5-21.2V257h-15.2v506.2h15.2z" fill="#FFCDD2" p-id="1337"></path><path d="M426 423.2h-41.1v-27.3H426c7.6 0 13.7-6.1 13.7-13.7s-6.1-13.7-13.7-13.7h-28.1l26.6-49c3.4-6.2 1.3-14.1-4.5-17.8-5.9-3.5-13.3-1.5-16.7 4.8l-30.5 56.3c-1 1.9-1.5 3.8-1.6 5.7h-0.1c-0.1-1.9-0.6-3.9-1.6-5.7l-30.1-56.3c-3.3-6.2-10.8-8.3-16.5-4.8-5.7 3.5-7.8 11.6-4.4 17.8l26.2 49h-28.1c-7.6 0-13.7 6.1-13.7 13.7s6.1 13.7 13.7 13.7h41.1v27.3h-41.1c-7.6 0-13.7 6.1-13.7 13.7s6.1 13.7 13.7 13.7h41.1v28.7c0 6.8 6.1 12.3 13.7 12.3s13.7-5.5 13.7-12.3v-28.7h41.1c7.6 0 13.7-6.1 13.7-13.7-0.1-7.6-6.4-13.7-13.9-13.7zM752.6 376H512v-64h240.6v64z m-96.7 52.1H512v64h143.9v-64z m96.7 116H301.1v64h451.4v-64zM655.9 660H303.4v64h352.5v-64z" fill="#F44336" p-id="1338"></path></svg>
