<?xml version="1.0" standalone="no"?><!DOCTYPE svg PUBLIC "-//W3C//DTD SVG 1.1//EN" "http://www.w3.org/Graphics/SVG/1.1/DTD/svg11.dtd"><svg xmlns:xlink="http://www.w3.org/1999/xlink" t="1615214781430" class="icon" viewBox="0 0 1024 1024" version="1.1" xmlns="http://www.w3.org/2000/svg" p-id="1336" width="200" height="200"><defs><style type="text/css"></style></defs><path d="M61.281 512a450.56 450.56 0 1 0 901.12 0 450.56 450.56 0 1 0-901.12 0z" fill="#F39691" p-id="1337"></path><path d="M240.803 583.997a346.64 346.64 0 1 0 693.28 0 346.64 346.64 0 1 0-693.28 0z" fill="#F28281" p-id="1338"></path><path d="M481.659 486.22a245.248 245.248 0 1 1 0.03 346.773 245.207 245.207 0 0 1-0.03-346.772z" fill="#F06D71" p-id="1339"></path><path d="M762.88 740.25l-65.9-65.188a255.6 255.6 0 1 0-190.12 85.202 254.029 254.029 0 0 0 162.073-58.312L735.693 768zM289.592 503.004a217.257 217.257 0 1 1 217.252 218.332 218.04 218.04 0 0 1-217.252-218.332z m291.753-96.174l-26.47-28.421-48.917 46.039-52.649-46.459-25.548 29.256 53.57 47.252h-71.526v38.912h77.204v25.805h-66.048v38.912h66.048v67.83h38.733v-67.794h64.236V519.25h-64.236v-25.805h75.346v-38.912h-70.42z" fill="#FFFFFF" p-id="1340"></path></svg>
