<?xml version="1.0" standalone="no"?><!DOCTYPE svg PUBLIC "-//W3C//DTD SVG 1.1//EN" "http://www.w3.org/Graphics/SVG/1.1/DTD/svg11.dtd"><svg xmlns:xlink="http://www.w3.org/1999/xlink" t="1615214771798" class="icon" viewBox="0 0 1303 1024" version="1.1" xmlns="http://www.w3.org/2000/svg" p-id="1336" width="254.4921875" height="200"><defs><style type="text/css"></style></defs><path d="M423.66129 257.098807h246.848976c76.450404 0 134.673337-165.712286 134.673337-165.712286 0-49.577666-4.999933-87.178376-89.781958-89.781958s-105.093802 59.056655-166.024331 59.056655-93.740138-48.745544-170.607403-59.264685S288.987953 41.599225 288.987953 91.178491c0 0 58.222933 165.712286 134.673337 165.712286z m260.389361 51.24431h-260.390162c-288.406267 0-359.232647 566.503024-359.232647 566.503024 0 74.366899 60.306438 149.150659 134.673337 149.150659h708.987906c74.367699 0 134.673337-74.78376 134.673337-149.150659 0 0-70.82638-566.503024-359.128632-566.503024z m29.580335 435.371006a31.246979 31.246979 0 0 1 0 62.493158H585.935472V888.803386a31.246979 31.246979 0 1 1-62.493159 0V806.207281H394.497816a31.246979 31.246979 0 0 1 0-62.493158h128.21559v-39.892247H394.497816a31.246979 31.246979 0 0 1 0-62.493158h86.553484l-88.63699-158.628848a31.403002 31.403002 0 0 1 54.473584-31.246979l107.071691 189.355751h5.416794l107.175707-189.563782a31.403002 31.403002 0 0 1 54.473584 31.246179L632.076634 640.807841h81.554352a31.246979 31.246979 0 0 1 0 62.493959H585.935472v39.891446z m0 0" fill="#FE7459" p-id="1337"></path></svg>
