<?xml version="1.0" standalone="no"?><!DOCTYPE svg PUBLIC "-//W3C//DTD SVG 1.1//EN" "http://www.w3.org/Graphics/SVG/1.1/DTD/svg11.dtd"><svg xmlns:xlink="http://www.w3.org/1999/xlink" t="1615215774473" class="icon" viewBox="0 0 1024 1024" version="1.1" xmlns="http://www.w3.org/2000/svg" p-id="1367" width="200" height="200"><defs><style type="text/css"></style></defs><path d="M512 512m-512 0a512 512 0 1 0 1024 0 512 512 0 1 0-1024 0Z" fill="#FDEBED" p-id="1368"></path><path d="M512 742.4c-126.72 0-230.4-103.68-230.4-230.4s103.68-230.4 230.4-230.4 230.4 103.68 230.4 230.4-103.68 230.4-230.4 230.4z m128-243.2H512v-89.6c0-7.68-5.12-12.8-12.8-12.8s-12.8 5.12-12.8 12.8v102.4c0 7.68 5.12 12.8 12.8 12.8h140.8c7.68 0 12.8-5.12 12.8-12.8s-5.12-12.8-12.8-12.8z" fill="#EC3A4E" p-id="1369"></path></svg>
