<?xml version="1.0" standalone="no"?><!DOCTYPE svg PUBLIC "-//W3C//DTD SVG 1.1//EN" "http://www.w3.org/Graphics/SVG/1.1/DTD/svg11.dtd"><svg xmlns:xlink="http://www.w3.org/1999/xlink" t="1615205367118" class="icon" viewBox="0 0 1024 1024" version="1.1" xmlns="http://www.w3.org/2000/svg" p-id="1149" width="200" height="200"><defs><style type="text/css"></style></defs><path d="M512 512m-512 0a512 512 0 1 0 1024 0 512 512 0 1 0-1024 0Z" fill="#8CA8E6" p-id="1150"></path><path d="M759.881143 762.404571H263.570286A44.653714 44.653714 0 0 1 219.428571 717.421714v-156.123428a114.834286 114.834286 0 0 0 76.288 28.964571h431.981715c28.086857 0 55.259429-10.24 76.288-28.964571v156.086857c0 24.868571-19.858286 45.019429-44.105143 45.019428z m0-417.389714h-119.588572a128.877714 128.877714 0 0 0-128.585142-125.074286 128.877714 128.877714 0 0 0-128.585143 125.074286h-119.588572c-24.246857 0-44.105143 20.187429-44.105143 44.982857v92.964572c0 20.48 7.899429 39.753143 22.491429 54.089143 14.336 14.628571 33.645714 22.784 54.089143 22.784h431.981714c20.187429 0 39.753143-8.155429 54.089143-22.784 14.336-14.628571 22.198857-33.901714 22.198857-54.089143v-92.928c-0.292571-24.868571-20.150857-44.982857-44.397714-44.982857z m-248.173714-85.650286c47.908571 0 87.405714 38.290286 89.453714 85.650286h-178.870857a89.673143 89.673143 0 0 1 89.417143-85.650286z m0 237.641143a39.497143 39.497143 0 0 1-39.131429-39.753143c0-21.942857 17.517714-39.753143 39.131429-39.753142a39.497143 39.497143 0 0 1 39.168 39.753142c0 21.942857-17.554286 39.753143-39.131429 39.753143z" fill="#FFFFFF" p-id="1151"></path></svg>
