<?xml version="1.0" standalone="no"?><!DOCTYPE svg PUBLIC "-//W3C//DTD SVG 1.1//EN" "http://www.w3.org/Graphics/SVG/1.1/DTD/svg11.dtd"><svg xmlns:xlink="http://www.w3.org/1999/xlink" t="1615205464339" class="icon" viewBox="0 0 1024 1024" version="1.1" xmlns="http://www.w3.org/2000/svg" p-id="2116" width="200" height="200"><defs><style type="text/css"></style></defs><path d="M512 512m-512 0a512 512 0 1 0 1024 0 512 512 0 1 0-1024 0Z" fill="#8CA8E6" p-id="2117"></path><path d="M465.261714 302.592V265.142857c0-25.197714 20.516571-45.714286 45.714286-45.714286h1.353143c25.161143 0 45.714286 20.516571 45.714286 45.714286v37.412572a255.122286 255.122286 0 0 1 134.473142 70.692571 254.829714 254.829714 0 0 1 74.861715 180.845714c0 17.298286-1.792 34.56-5.193143 51.419429a14.153143 14.153143 0 0 1-13.860572 11.337143H275.017143a14.153143 14.153143 0 0 1-13.860572-11.337143A255.232 255.232 0 0 1 256 554.057143a254.829714 254.829714 0 0 1 74.861714-180.809143 255.122286 255.122286 0 0 1 134.436572-70.656z m-168.082285 448.731429c-21.942857 0-39.68-17.846857-39.68-39.716572v-1.060571c0-21.942857 17.810286-39.68 39.68-39.68h431.140571c21.942857 0 39.68 17.846857 39.68 39.68v1.097143c0 21.906286-17.810286 39.68-39.68 39.68H297.142857z" fill="#FFFFFF" p-id="2118"></path></svg>
