<?xml version="1.0" standalone="no"?><!DOCTYPE svg PUBLIC "-//W3C//DTD SVG 1.1//EN" "http://www.w3.org/Graphics/SVG/1.1/DTD/svg11.dtd"><svg xmlns:xlink="http://www.w3.org/1999/xlink" t="1615205406577" class="icon" viewBox="0 0 1024 1024" version="1.1" xmlns="http://www.w3.org/2000/svg" p-id="1180" width="200" height="200"><defs><style type="text/css"></style></defs><path d="M512 512m-512 0a512 512 0 1 0 1024 0 512 512 0 1 0-1024 0Z" fill="#F299C4" p-id="1181"></path><path d="M679.094857 292.571429H588.068571c-1.755429 35.84-35.108571 64.365714-76.068571 64.365714S437.869714 328.411429 435.931429 292.571429H360.045714a73.142857 73.142857 0 0 0-51.675428 21.394285l-63.085715 62.902857a36.571429 36.571429 0 0 0 0 51.748572l31.085715 31.085714a36.571429 36.571429 0 0 0 51.821714-0.036571l2.413714-2.450286v278.601143a36.571429 36.571429 0 0 0 36.571429 36.571428h289.645714a36.571429 36.571429 0 0 0 36.571429-36.571428v-278.601143l2.413714 2.450286a36.571429 36.571429 0 0 0 51.785143 0.073143l31.122286-31.085715a36.571429 36.571429 0 0 0 0-51.748571l-73.801143-73.654857A36.571429 36.571429 0 0 0 679.131429 292.571429z" fill="#FFFFFF" p-id="1182"></path></svg>
