<?xml version="1.0" standalone="no"?><!DOCTYPE svg PUBLIC "-//W3C//DTD SVG 1.1//EN" "http://www.w3.org/Graphics/SVG/1.1/DTD/svg11.dtd"><svg xmlns:xlink="http://www.w3.org/1999/xlink" t="1615205487820" class="icon" viewBox="0 0 1024 1024" version="1.1" xmlns="http://www.w3.org/2000/svg" p-id="3286" width="200" height="200"><defs><style type="text/css"></style></defs><path d="M512 512m-512 0a512 512 0 1 0 1024 0 512 512 0 1 0-1024 0Z" fill="#99D6F2" p-id="3287"></path><path d="M691.602286 256.621714H325.632c-41.435429 0-69.046857 34.413714-69.046857 75.702857v316.708572c0 41.325714 27.611429 75.739429 69.046857 75.739428h366.043429c41.435429 0 69.046857-34.377143 69.046857-75.702857v-316.708571c-0.073143-41.325714-27.648-75.739429-69.12-75.739429zM387.072 676.205714a37.485714 37.485714 0 0 1-37.522286-37.412571 37.449143 37.449143 0 0 1 37.522286-37.376c20.699429 0 37.485714 16.713143 37.522286 37.376a37.449143 37.449143 0 0 1-37.522286 37.412571z m239.140571 0a37.485714 37.485714 0 0 1-37.558857-37.412571 37.449143 37.449143 0 0 1 37.558857-37.376 37.449143 37.449143 0 0 1 37.522286 37.376 37.485714 37.485714 0 0 1-37.522286 37.412571z m65.389715-157.952c0 11.812571-8.886857 27.538286-20.699429 27.538286H346.331429c-11.849143 0-20.699429-15.762286-20.699429-27.538286V366.811429c0-11.812571 8.923429-27.501714 20.699429-27.501715h324.571428c11.849143 0 20.699429 15.725714 20.699429 27.501715v151.478857z m-296.923429 240.969143c0 25.636571-17.408 44.726857-43.154286 44.726857a46.518857 46.518857 0 0 1-46.592-46.445714v-18.907429h89.746286v20.626286z m310.747429 0c0 25.636571-17.408 44.726857-43.154286 44.726857a46.518857 46.518857 0 0 1-46.592-46.445714v-18.907429h89.746286v20.626286z" fill="#FFFFFF" p-id="3288"></path></svg>
