<?xml version="1.0" standalone="no"?><!DOCTYPE svg PUBLIC "-//W3C//DTD SVG 1.1//EN" "http://www.w3.org/Graphics/SVG/1.1/DTD/svg11.dtd"><svg xmlns:xlink="http://www.w3.org/1999/xlink" t="1615205479769" class="icon" viewBox="0 0 1024 1024" version="1.1" xmlns="http://www.w3.org/2000/svg" p-id="2766" width="200" height="200"><defs><style type="text/css"></style></defs><path d="M512 512m-512 0a512 512 0 1 0 1024 0 512 512 0 1 0-1024 0Z" fill="#E6B673" p-id="2767"></path><path d="M701.769143 358.765714h-55.661714a139.264 139.264 0 0 0-139.117715-139.264 139.264 139.264 0 0 0-139.117714 139.264H312.210286a55.588571 55.588571 0 0 0-55.369143 55.734857l-0.292572 334.262858c0.073143 30.72 24.941714 55.625143 55.661715 55.734857h389.558857a55.844571 55.844571 0 0 0 55.661714-55.698286v-334.262857a55.844571 55.844571 0 0 0-55.661714-55.734857z m-194.779429-83.565714a83.382857 83.382857 0 0 1 83.492572 83.565714H423.497143a83.382857 83.382857 0 0 1 83.492571-83.565714z m0 278.601143a139.264 139.264 0 0 1-139.117714-139.337143h55.625143a83.382857 83.382857 0 0 0 142.555428 59.136 83.382857 83.382857 0 0 0 24.393143-59.099429h55.661715a139.264 139.264 0 0 1-139.117715 139.300572z" fill="#FFFFFF" p-id="2768"></path></svg>
