<?xml version="1.0" standalone="no"?><!DOCTYPE svg PUBLIC "-//W3C//DTD SVG 1.1//EN" "http://www.w3.org/Graphics/SVG/1.1/DTD/svg11.dtd"><svg xmlns:xlink="http://www.w3.org/1999/xlink" t="1615205484255" class="icon" viewBox="0 0 1024 1024" version="1.1" xmlns="http://www.w3.org/2000/svg" p-id="3026" width="200" height="200"><defs><style type="text/css"></style></defs><path d="M512 512m-512 0a512 512 0 1 0 1024 0 512 512 0 1 0-1024 0Z" fill="#8CA8E6" p-id="3027"></path><path d="M380.891429 789.211429A51.858286 51.858286 0 0 1 329.142857 737.499429V289.426286c0-28.452571 23.296-51.712 51.748572-51.712h241.371428c28.489143 0 51.748571 23.259429 51.748572 51.712v238.738285c-11.885714 0.768-23.405714 2.816-34.486858 5.997715v-227.474286H363.593143v344.649143h164.425143a159.597714 159.597714 0 0 0 32 137.874286h-179.126857z m51.712-525.677715v17.225143h137.947428v-17.188571H432.64zM684.397714 822.857143a135.131429 135.131429 0 0 1-135.314285-134.948572 135.058286 135.058286 0 0 1 135.131428-134.838857c74.715429 0 135.314286 60.562286 135.204572 135.058286a135.204571 135.204571 0 0 1-134.985143 134.729143h-0.036572z m-5.485714-41.472h13.019429v-18.322286c27.611429-2.084571 49.188571-17.152 49.188571-43.885714 0-23.222857-15.579429-34.998857-44.251429-41.691429l-4.937142-1.170285v-45.604572c13.750857 1.828571 23.442286 9.837714 24.868571 23.442286h22.601143c-0.877714-24.649143-20.406857-40.996571-47.469714-43.154286v-18.578286h-12.982858v18.541715c-27.282286 2.084571-46.811429 18.102857-46.811428 42.569143 0 22.125714 14.957714 34.56 42.678857 40.996571l4.132571 1.097143v47.542857c-17.334857-1.828571-25.526857-11.190857-27.501714-23.990857h-22.674286c0.877714 26.075429 22.564571 41.691429 50.176 43.885714v18.285714z m-23.625143-129.718857c0-9.947429 8.045714-19.017143 23.661714-20.955429v42.569143c-17.225143-4.388571-23.661714-11.702857-23.661714-21.613714z m62.829714 69.705143c0 11.702857-7.862857 20.406857-26.185142 21.942857v-44.726857c19.968 4.754286 26.185143 11.446857 26.185142 22.784z" fill="#FFFFFF" p-id="3028"></path></svg>
