<?xml version="1.0" standalone="no"?><!DOCTYPE svg PUBLIC "-//W3C//DTD SVG 1.1//EN" "http://www.w3.org/Graphics/SVG/1.1/DTD/svg11.dtd"><svg xmlns:xlink="http://www.w3.org/1999/xlink" t="1615205477356" class="icon" viewBox="0 0 1024 1024" version="1.1" xmlns="http://www.w3.org/2000/svg" p-id="2636" width="200" height="200"><defs><style type="text/css"></style></defs><path d="M512 512m-512 0a512 512 0 1 0 1024 0 512 512 0 1 0-1024 0Z" fill="#E68CBF" p-id="2637"></path><path d="M419.181714 494.811429C354.742857 470.125714 310.857143 421.558857 310.857143 365.714286c0-80.822857 91.684571-146.285714 204.8-146.285715 113.115429 0 204.8 65.462857 204.8 146.285715 0 55.881143-43.885714 104.448-108.324572 129.097143C676.571429 512 720.457143 546.011429 720.457143 585.142857v117.138286C720.347429 758.784 628.662857 804.571429 515.657143 804.571429c-112.274286 0-203.410286-45.165714-204.8-101.12a52.260571 52.260571 0 0 1 0-2.56V585.142857c0-39.131429 43.885714-73.142857 108.324571-90.331428z m96.475429-12.068572c98.669714 0 175.542857-54.930286 175.542857-117.028571 0-62.098286-76.873143-117.028571-175.542857-117.028572S340.114286 303.616 340.114286 365.714286c0 62.098286 76.873143 117.028571 175.542857 117.028571z m139.849143 144.603429c22.491429-12.653714 35.693714-27.721143 35.693714-42.203429 0-34.889143-76.507429-73.142857-175.542857-73.142857-99.035429 0-175.542857 38.253714-175.542857 73.142857 0 14.482286 13.165714 29.549714 35.693714 42.203429 31.707429 17.846857 81.92 30.939429 139.849143 30.939428 57.892571 0 108.141714-13.092571 139.849143-30.939428z m28.233143 16.310857c23.149714 16.603429 36.717714 36.754286 36.717714 58.514286 0-21.76-13.568-41.910857-36.717714-58.514286z m-168.082286-14.628572c-66.011429 0-117.028571-22.966857-117.028572-43.885714s51.017143-43.885714 117.028572-43.885714c66.011429 0 117.028571 22.966857 117.028571 43.885714s-51.017143 43.885714-117.028571 43.885714z m-2.413714-350.354285a14.628571 14.628571 0 0 1-1.828572 20.626285l-112.018286 94.025143a14.628571 14.628571 0 0 1-18.834285-22.418285l112.091428-93.988572a14.628571 14.628571 0 0 1 20.589715 1.792z m80.932571 39.716571a14.628571 14.628571 0 0 1-1.828571 20.626286l-134.436572 112.822857a14.628571 14.628571 0 0 1-18.834286-22.418286l134.473143-112.822857a14.628571 14.628571 0 0 1 20.626286 1.828572z m72.192 29.257143a14.628571 14.628571 0 0 1-1.792 20.626286l-89.636571 75.227428a14.628571 14.628571 0 1 1-18.834286-22.418285l89.673143-75.227429a14.628571 14.628571 0 0 1 20.589714 1.828571z" fill="#FFFFFF" p-id="2638"></path></svg>
