<?xml version="1.0" standalone="no"?><!DOCTYPE svg PUBLIC "-//W3C//DTD SVG 1.1//EN" "http://www.w3.org/Graphics/SVG/1.1/DTD/svg11.dtd"><svg xmlns:xlink="http://www.w3.org/1999/xlink" t="1615205469268" class="icon" viewBox="0 0 1024 1024" version="1.1" xmlns="http://www.w3.org/2000/svg" p-id="2246" width="200" height="200"><defs><style type="text/css"></style></defs><path d="M512 512m-512 0a512 512 0 1 0 1024 0 512 512 0 1 0-1024 0Z" fill="#8CA8E6" p-id="2247"></path><path d="M801.755429 452.937143v216.612571a19.675429 19.675429 0 0 1-39.387429 0v-78.774857c0-32.621714-26.441143-59.099429-59.062857-59.099428h-59.099429V295.387429c0-21.76-17.627429-39.387429-39.387428-39.387429h-236.288C346.770286 256 329.142857 273.627429 329.142857 295.387429v433.225142C329.142857 750.372571 346.770286 768 368.530286 768h236.288c21.76 0 39.387429-17.627429 39.387428-39.387429v-157.549714h59.099429c10.861714 0 19.675429 8.813714 19.675428 19.712v78.774857a59.062857 59.062857 0 1 0 118.162286 0v-256c0-21.76-17.627429-39.387429-39.387428-39.387428V314.697143a19.675429 19.675429 0 0 0-19.675429-19.309714 20.114286 20.114286 0 0 0-19.712 21.650285v96.512a39.387429 39.387429 0 1 0 39.387429-39.387428v78.774857z m-196.937143 19.675428a19.675429 19.675429 0 0 1-19.675429 19.712h-196.937143a19.675429 19.675429 0 0 1-19.675428-19.712v-118.125714a19.675429 19.675429 0 0 1 19.675428-19.748571H585.142857c10.861714 0 19.675429 8.850286 19.675429 19.748571v118.125714z" fill="#FFFFFF" p-id="2248"></path></svg>
