<?xml version="1.0" standalone="no"?><!DOCTYPE svg PUBLIC "-//W3C//DTD SVG 1.1//EN" "http://www.w3.org/Graphics/SVG/1.1/DTD/svg11.dtd"><svg xmlns:xlink="http://www.w3.org/1999/xlink" t="1615206593332" class="icon" viewBox="0 0 1024 1024" version="1.1" xmlns="http://www.w3.org/2000/svg" p-id="1220" width="200" height="200"><defs><style type="text/css"></style></defs><path d="M512 512m-512 0a512 512 0 1 0 1024 0 512 512 0 1 0-1024 0Z" fill="#99D6F2" p-id="1221"></path><path d="M704.073143 713.142857V256a36.571429 36.571429 0 0 0-36.571429-36.571429h-310.857143a36.571429 36.571429 0 0 0-36.571428 36.571429v457.142857H265.142857a27.428571 27.428571 0 1 0 0 54.857143h493.714286a27.428571 27.428571 0 1 0 0-54.857143h-54.784zM457.142857 658.285714H402.285714v-54.857143h54.857143V658.285714z m0-137.069714H402.285714v-54.857143h54.857143v54.857143z m0-137.216H402.285714V329.142857h54.857143v54.857143zM621.714286 658.285714h-54.857143V329.142857H621.714286v329.142857z" fill="#FFFFFF" p-id="1222"></path></svg>
