<?xml version="1.0" standalone="no"?><!DOCTYPE svg PUBLIC "-//W3C//DTD SVG 1.1//EN" "http://www.w3.org/Graphics/SVG/1.1/DTD/svg11.dtd"><svg xmlns:xlink="http://www.w3.org/1999/xlink" t="1615205485867" class="icon" viewBox="0 0 1024 1024" version="1.1" xmlns="http://www.w3.org/2000/svg" p-id="3156" width="200" height="200"><defs><style type="text/css"></style></defs><path d="M512 512m-512 0a512 512 0 1 0 1024 0 512 512 0 1 0-1024 0Z" fill="#EBB375" p-id="3157"></path><path d="M797.805714 226.194286c25.636571 25.6-25.6 124.416-120.758857 230.546285-3.657143 3.657143-3.657143 7.314286-3.657143 14.628572l40.228572 296.448c0 7.314286 0 10.971429-7.314286 14.628571l-25.6 18.285715c-7.314286 7.350857-21.942857 3.657143-25.6-7.314286l-84.187429-197.595429c-7.314286-10.971429-18.285714-14.628571-29.257142-7.314285-32.950857 29.257143-65.901714 54.857143-95.158858 73.179428-7.314286 3.657143-7.314286 10.971429-7.314285 18.285714l18.285714 84.187429c0 7.314286 0 14.628571-7.314286 18.285714-7.314286 3.657143-18.285714 3.657143-21.942857-7.314285l-65.901714-106.130286-7.314286-7.314286-102.473143-65.865143c-7.314286 0-10.971429-10.971429-7.314285-18.285714 3.657143-7.314286 10.971429-10.971429 18.285714-7.314286l84.187428 18.285715c7.314286 0 14.628571 0 18.285715-7.314286 18.285714-29.293714 40.228571-58.587429 69.522285-91.501714 3.657143-10.971429 3.657143-21.942857-7.314285-29.257143l-197.632-84.224c-10.971429-3.657143-14.628571-14.628571-7.314286-25.6l18.285714-25.6c3.657143-7.314286 10.971429-7.314286 14.628572-7.314286l292.827428 40.228571c3.657143 0 10.971429 0 14.628572-3.657142 109.787429-98.816 208.603429-153.709714 234.203428-128.073143z m-175.652571 223.232c-3.657143-3.657143-10.971429-3.657143-14.628572 0L545.28 511.634286c-3.657143 3.657143-3.657143 10.971429 0 14.628571 3.657143 3.657143 10.971429 3.657143 14.628571 0l62.244572-62.171428c3.657143-3.657143 3.657143-11.008 0-14.665143z m-43.885714-43.885715c-3.657143-3.693714-11.008-3.693714-14.665143 0l-62.208 62.171429c-3.657143 3.657143-3.657143 10.971429 0 14.628571 3.657143 3.657143 10.971429 3.657143 14.628571 0l62.208-62.171428c3.657143-3.657143 3.657143-10.971429 0-14.628572z" fill="#FFFFFF" p-id="3158"></path></svg>
