<?xml version="1.0" standalone="no"?><!DOCTYPE svg PUBLIC "-//W3C//DTD SVG 1.1//EN" "http://www.w3.org/Graphics/SVG/1.1/DTD/svg11.dtd"><svg xmlns:xlink="http://www.w3.org/1999/xlink" t="1615206983659" class="icon" viewBox="0 0 1024 1024" version="1.1" xmlns="http://www.w3.org/2000/svg" p-id="1251" width="200" height="200"><defs><style type="text/css"></style></defs><path d="M512 512m-512 0a512 512 0 1 0 1024 0 512 512 0 1 0-1024 0Z" fill="#B5B5C4" p-id="1252"></path><path d="M520.484571 614.290286c2.011429 62.902857 29.952 120.758857 61.878858 137.728 0.987429 0.987429 9.984 8.996571-5.997715 11.958857-12.982857 2.998857-101.778286 9.984-130.742857-7.972572-3.986286-1.974857 0-6.948571 4.022857-7.972571 41.910857-9.984 52.882286-91.794286 54.857143-136.740571C432.64 745.033143 257.024 706.121143 256 536.429714c-0.987429-96.804571 89.819429-132.754286 149.723429-170.642285 58.88-36.937143 99.803429-88.832 106.788571-109.787429 5.961143 20.955429 51.894857 73.874286 105.764571 110.811429 58.88 40.886857 150.710857 74.825143 149.723429 170.642285-1.024 167.643429-176.64 200.594286-247.515429 76.836572z" fill="#FFFFFF" p-id="1253"></path></svg>
