<?xml version="1.0" standalone="no"?><!DOCTYPE svg PUBLIC "-//W3C//DTD SVG 1.1//EN" "http://www.w3.org/Graphics/SVG/1.1/DTD/svg11.dtd"><svg xmlns:xlink="http://www.w3.org/1999/xlink" t="1615205475242" class="icon" viewBox="0 0 1024 1024" version="1.1" xmlns="http://www.w3.org/2000/svg" p-id="2506" width="200" height="200"><defs><style type="text/css"></style></defs><path d="M512 512m-512 0a512 512 0 1 0 1024 0 512 512 0 1 0-1024 0Z" fill="#80CCEC" p-id="2507"></path><path d="M730.989714 361.545143h-109.531428V291.437714c0-19.273143-16.457143-35.035429-36.498286-35.035428h-145.993143c-20.114286 0-36.498286 15.762286-36.498286 35.035428v70.107429H292.937143c-40.155429 0-72.996571 31.524571-72.996572 70.070857v280.356571c0 38.582857 32.841143 70.070857 72.996572 70.070858h438.052571c40.118857 0 72.996571-31.488 72.996572-70.070858v-280.356571c0-38.546286-32.877714-70.070857-72.996572-70.070857z m-292.022857-70.107429h145.993143v70.107429h-145.993143V291.437714z m218.989714 315.392h-109.494857v105.142857H475.428571v-105.142857h-109.494857v-70.070857H475.428571v-105.142857h72.996572v105.142857h109.494857v70.070857z" fill="#FFFFFF" p-id="2508"></path></svg>
