<?xml version="1.0" standalone="no"?><!DOCTYPE svg PUBLIC "-//W3C//DTD SVG 1.1//EN" "http://www.w3.org/Graphics/SVG/1.1/DTD/svg11.dtd"><svg xmlns:xlink="http://www.w3.org/1999/xlink" t="1615205473173" class="icon" viewBox="0 0 1024 1024" version="1.1" xmlns="http://www.w3.org/2000/svg" p-id="2376" width="200" height="200"><defs><style type="text/css"></style></defs><path d="M512 512m-512 0a512 512 0 1 0 1024 0 512 512 0 1 0-1024 0Z" fill="#75BBEB" p-id="2377"></path><path d="M627.894857 524.141714c24.502857-30.500571 57.892571-50.212571 100.205714-59.099428a243.456 243.456 0 0 0-86.125714-127.963429 229.522286 229.522286 0 0 0-145.225143-49.810286c-12.982857 0-25.965714 1.097143-38.948571 3.328a247.844571 247.844571 0 0 0-37.12 9.325715 221.257143 221.257143 0 0 0-34.194286 14.884571 264.411429 264.411429 0 0 0-31.744 20.077714 210.358857 210.358857 0 0 0-28.086857 24.905143c-8.667429 9.179429-16.603429 18.870857-23.771429 29.037715a291.145143 291.145143 0 0 0-19.821714 32.329142c-6.034286 11.410286-10.971429 23.186286-14.774857 35.328a270.518857 270.518857 0 0 0-9.033143 38.290286 252.525714 252.525714 0 0 0 8.996572 118.272c8.155429 25.270857 19.675429 48.091429 34.596571 68.425143 14.884571 20.333714 32.182857 38.070857 51.894857 53.174857a232.521143 232.521143 0 0 0 66.304 35.328c24.502857 8.411429 49.737143 12.653714 75.666286 12.653714 36.498286 0 70.619429-7.826286 102.363428-23.405714A244.955429 244.955429 0 0 0 680.484571 694.857143c-40.813714-12.397714-66.048-36.425143-75.666285-72.155429-9.142857-35.181714-1.462857-68.022857 23.076571-98.56z m-197.851428 79.616A95.341714 95.341714 0 0 1 402.285714 534.966857c0-17.846857 4.205714-34.230857 12.617143-49.115428 8.411429-14.884571 19.931429-26.660571 34.596572-35.328 14.628571-8.667429 30.390857-12.982857 47.177142-13.019429a90.331429 90.331429 0 0 1 67.437715 28.635429c18.468571 19.090286 27.721143 42.057143 27.721143 68.827428 0 17.846857-4.205714 34.194286-12.617143 49.078857-8.411429 14.884571-19.931429 26.697143-34.596572 35.328-14.628571 8.667429-30.610286 13.019429-47.908571 13.019429-25.965714 0-48.164571-9.508571-66.669714-28.635429zM841.142857 368.347429a334.445714 334.445714 0 0 0-21.650286-38.290286 159.890286 159.890286 0 0 0-23.405714-28.635429 216.027429 216.027429 0 0 0-24.137143-19.748571 114.176 114.176 0 0 0-23.771428-12.982857c-7.68-2.998857-15.030857-5.485714-22.016-7.460572a83.821714 83.821714 0 0 0-19.090286-3.364571c-2.633143-0.109714-13.897143-1.316571-33.865143-1.865143-13.275429-0.365714-24.100571-0.365714-32.438857 0a1017.782857 1017.782857 0 0 1 54.784 80.347429c15.36 25.270857 27.136 46.848 35.291429 64.731428 8.155429 17.810286 14.774857 33.828571 19.821714 47.945143 5.046857 14.153143 8.045714 26.185143 9.033143 36.096 0.950857 9.910857 1.316571 17.481143 1.097143 22.674286a61.001143 61.001143 0 0 1-1.828572 13.019428c-19.2-9.910857-40.594286-11.666286-64.146286-5.193143-22.089143 6.436571-39.277714 18.578286-51.529142 36.425143-12.214857 17.846857-15.945143 35.949714-11.154286 54.272 4.790857 18.358857 16.713143 31.853714 35.693714 40.557715 18.980571 8.667429 39.497143 9.801143 61.622857 3.364571a103.131429 103.131429 0 0 0 30.281143-15.286857c9.142857-6.692571 16.457143-14.262857 21.942857-22.674286 5.558857-8.411429 12.434286-17.590857 14.336-27.501714 17.846857-49.846857 9.325714-111.323429-42.057143-213.467429l-25.965714-47.616L841.142857 368.310857z m-369.993143 120.868571a52.992 52.992 0 0 0-25.6 45.714286c0 14.409143 5.010286 26.806857 15.104 37.229714 10.093714 10.422857 22.235429 15.616 36.388572 15.616 14.189714 0 26.221714-5.229714 36.059428-15.616 9.874286-10.386286 14.774857-22.784 14.774857-37.193143 0-14.409143-4.900571-26.806857-14.774857-37.229714a48.274286 48.274286 0 0 0-36.388571-15.579429c-9.142857 0-17.664 2.340571-25.6 7.058286z" fill="#FFFFFF" p-id="2378"></path></svg>
